<svg xmlns="http://www.w3.org/2000/svg" viewBox="0 0 128 128" role="img" aria-labelledby="title">
  <title id="title">MaiCare Solutions</title>
  <defs>
    <linearGradient id="brand" x1="19" y1="109" x2="109" y2="19" gradientUnits="userSpaceOnUse">
      <stop stop-color="#253b80"/>
      <stop offset="1" stop-color="#27aae1"/>
    </linearGradient>
  </defs>
  <g fill="url(#brand)">
    <!-- 4 Center circles (Large) -->
    <circle cx="55" cy="55" r="6.8"/>
    <circle cx="55" cy="73" r="6.8"/>
    <circle cx="73" cy="55" r="6.8"/>
    <circle cx="73" cy="73" r="6.8"/>

    <!-- 12 Surrounding circles (Medium) -->
    <!-- 4 Corners of the 4x4 grid -->
    <circle cx="37" cy="37" r="4.8"/>
    <circle cx="37" cy="91" r="4.8"/>
    <circle cx="91" cy="37" r="4.8"/>
    <circle cx="91" cy="91" r="4.8"/>
    <!-- 8 Edge dots of the 4x4 grid -->
    <circle cx="55" cy="37" r="4.8"/>
    <circle cx="73" cy="37" r="4.8"/>
    <circle cx="55" cy="91" r="4.8"/>
    <circle cx="73" cy="91" r="4.8"/>
    <circle cx="37" cy="55" r="4.8"/>
    <circle cx="37" cy="73" r="4.8"/>
    <circle cx="91" cy="55" r="4.8"/>
    <circle cx="91" cy="73" r="4.8"/>

    <!-- 8 Extra outer circles (Small) -->
    <!-- Top & Bottom -->
    <circle cx="55" cy="19" r="3.2"/>
    <circle cx="73" cy="19" r="3.2"/>
    <circle cx="55" cy="109" r="3.2"/>
    <circle cx="73" cy="109" r="3.2"/>
    <!-- Left & Right -->
    <circle cx="19" cy="55" r="3.2"/>
    <circle cx="19" cy="73" r="3.2"/>
    <circle cx="109" cy="55" r="3.2"/>
    <circle cx="109" cy="73" r="3.2"/>
  </g>
</svg>
